<?xml version="1.0" encoding="UTF-8" standalone="no"?>
<!DOCTYPE svg PUBLIC "-//W3C//DTD SVG 1.1//EN"
 "http://www.w3.org/Graphics/SVG/1.1/DTD/svg11.dtd">
<!-- Generated by graphviz version 2.40.1 (20161225.0304)
 -->
<!-- Title: Compilation Pages: 1 -->
<svg width="255pt" height="481pt"
 viewBox="0.00 0.00 255.05 480.73" xmlns="http://www.w3.org/2000/svg" xmlns:xlink="http://www.w3.org/1999/xlink">
<g id="graph0" class="graph" transform="scale(1 1) rotate(0) translate(4 476.7294)">
<title>Compilation</title>
<polygon fill="#ffffff" stroke="transparent" points="-4,4 -4,-476.7294 251.0501,-476.7294 251.0501,4 -4,4"/>
<!-- es6 -->
<g id="node1" class="node">
<title>es6</title>
<ellipse fill="#fdf6e3" stroke="#000000" cx="155.1337" cy="-306" rx="49.4946" ry="18"/>
<text text-anchor="middle" x="155.1337" y="-308.4" font-family="Times,serif" font-size="8.00" fill="#000000">Kieli:</text>
<text text-anchor="middle" x="155.1337" y="-298.8" font-family="Times,serif" font-size="8.00" fill="#000000">EcmaScript 6 tai uudempi</text>
</g>
<!-- babel -->
<g id="node5" class="node">
<title>babel</title>
<polygon fill="none" stroke="#000000" points="165.1337,-180 111.1337,-180 111.1337,-144 165.1337,-144 165.1337,-180"/>
<text text-anchor="middle" x="138.1337" y="-164.4" font-family="Times,serif" font-size="8.00" fill="#000000">Kääntäjä:</text>
<text text-anchor="middle" x="138.1337" y="-154.8" font-family="Times,serif" font-size="8.00" fill="#000000">Babel</text>
</g>
<!-- es6&#45;&gt;babel -->
<g id="edge3" class="edge">
<title>es6&#45;&gt;babel</title>
<path fill="none" stroke="#000000" d="M152.9806,-287.7623C150.081,-263.201 144.892,-219.2474 141.481,-190.3541"/>
<polygon fill="#000000" stroke="#000000" points="144.9176,-189.6103 140.2693,-180.0896 137.9659,-190.431 144.9176,-189.6103"/>
</g>
<!-- closure -->
<g id="node6" class="node">
<title>closure</title>
<polygon fill="none" stroke="#000000" points="127.1337,-252 73.1337,-252 73.1337,-216 127.1337,-216 127.1337,-252"/>
<text text-anchor="middle" x="100.1337" y="-236.4" font-family="Times,serif" font-size="8.00" fill="#000000">Kääntäjä:</text>
<text text-anchor="middle" x="100.1337" y="-226.8" font-family="Times,serif" font-size="8.00" fill="#000000">Closure</text>
</g>
<!-- es6&#45;&gt;closure -->
<g id="edge5" class="edge">
<title>es6&#45;&gt;closure</title>
<path fill="none" stroke="#000000" d="M141.8197,-288.5708C135.279,-280.0085 127.264,-269.5161 120.0156,-260.0272"/>
<polygon fill="#000000" stroke="#000000" points="122.7512,-257.8427 113.8994,-252.0206 117.1885,-262.092 122.7512,-257.8427"/>
</g>
<!-- suoritus_new -->
<g id="node9" class="node">
<title>suoritus_new</title>
<polygon fill="none" stroke="#000000" points="246.9666,-108 139.3007,-108 139.3007,-72 246.9666,-72 246.9666,-108"/>
<text text-anchor="middle" x="193.1337" y="-92.4" font-family="Times,serif" font-size="8.00" fill="#000000">Moderni suoritusympäristö:</text>
<text text-anchor="middle" x="193.1337" y="-82.8" font-family="Times,serif" font-size="8.00" fill="#000000">Chrome, Node.js 10, jne.</text>
</g>
<!-- es6&#45;&gt;suoritus_new -->
<g id="edge10" class="edge">
<title>es6&#45;&gt;suoritus_new</title>
<path fill="none" stroke="#000000" d="M158.3082,-287.9555C164.9302,-250.3144 180.2582,-163.1867 188.1858,-118.1246"/>
<polygon fill="#000000" stroke="#000000" points="191.6558,-118.6003 189.9415,-108.1451 184.7617,-117.3874 191.6558,-118.6003"/>
</g>
<!-- flow -->
<g id="node2" class="node">
<title>flow</title>
<ellipse fill="#fdf6e3" stroke="#000000" cx="159.1337" cy="-452.3647" rx="58.8267" ry="20.2302"/>
<text text-anchor="middle" x="159.1337" y="-459.5647" font-family="Times,serif" font-size="8.00" fill="#000000">Kieli:</text>
<text text-anchor="middle" x="159.1337" y="-449.9647" font-family="Times,serif" font-size="8.00" fill="#000000">EcmaScript 6 tai uudempi</text>
<text text-anchor="middle" x="159.1337" y="-440.3647" font-family="Times,serif" font-size="8.00" fill="#000000">ja Flow annotaatiot</text>
</g>
<!-- flowPlugin -->
<g id="node7" class="node">
<title>flowPlugin</title>
<polygon fill="none" stroke="#000000" points="211.5609,-396 102.7064,-396 102.7064,-360 211.5609,-360 211.5609,-396"/>
<text text-anchor="middle" x="157.1337" y="-380.4" font-family="Times,serif" font-size="8.00" fill="#000000">Kääntäjä:</text>
<text text-anchor="middle" x="157.1337" y="-370.8" font-family="Times,serif" font-size="8.00" fill="#000000">Flow annotaatioiden poistaja</text>
</g>
<!-- flow&#45;&gt;flowPlugin -->
<g id="edge1" class="edge">
<title>flow&#45;&gt;flowPlugin</title>
<path fill="none" stroke="#000000" d="M158.5766,-431.65C158.3653,-423.7933 158.1209,-414.7075 157.894,-406.2718"/>
<polygon fill="#000000" stroke="#000000" points="161.3875,-405.978 157.6198,-396.0758 154.39,-406.1663 161.3875,-405.978"/>
</g>
<!-- ts -->
<g id="node3" class="node">
<title>ts</title>
<ellipse fill="#fdf6e3" stroke="#000000" cx="41.1337" cy="-452.3647" rx="41.2678" ry="18"/>
<text text-anchor="middle" x="41.1337" y="-449.9647" font-family="Times,serif" font-size="8.00" fill="#000000">Kieli: TypeScript</text>
</g>
<!-- tsc -->
<g id="node8" class="node">
<title>tsc</title>
<polygon fill="none" stroke="#000000" points="72.1337,-396 18.1337,-396 18.1337,-360 72.1337,-360 72.1337,-396"/>
<text text-anchor="middle" x="45.1337" y="-380.4" font-family="Times,serif" font-size="8.00" fill="#000000">Kääntäjä:</text>
<text text-anchor="middle" x="45.1337" y="-370.8" font-family="Times,serif" font-size="8.00" fill="#000000">TypeScript</text>
</g>
<!-- ts&#45;&gt;tsc -->
<g id="edge7" class="edge">
<title>ts&#45;&gt;tsc</title>
<path fill="none" stroke="#000000" d="M42.102,-434.3631C42.5555,-425.9306 43.1066,-415.6856 43.6139,-406.255"/>
<polygon fill="#000000" stroke="#000000" points="47.1182,-406.2672 44.1604,-396.0936 40.1283,-405.8911 47.1182,-406.2672"/>
</g>
<!-- es5 -->
<g id="node4" class="node">
<title>es5</title>
<ellipse fill="#fdf6e3" stroke="#000000" cx="75.1337" cy="-90" rx="45.6796" ry="18"/>
<text text-anchor="middle" x="75.1337" y="-87.6" font-family="Times,serif" font-size="8.00" fill="#000000">Kieli: EcmaScript 5</text>
</g>
<!-- suoritus_old -->
<g id="node10" class="node">
<title>suoritus_old</title>
<polygon fill="none" stroke="#000000" points="144.6441,-36 5.6232,-36 5.6232,0 144.6441,0 144.6441,-36"/>
<text text-anchor="middle" x="75.1337" y="-20.4" font-family="Times,serif" font-size="8.00" fill="#000000">Suoritusympäristö:</text>
<text text-anchor="middle" x="75.1337" y="-10.8" font-family="Times,serif" font-size="8.00" fill="#000000">Internet Explorer, Chrome, Safari, jne.</text>
</g>
<!-- es5&#45;&gt;suoritus_old -->
<g id="edge11" class="edge">
<title>es5&#45;&gt;suoritus_old</title>
<path fill="none" stroke="#000000" d="M75.1337,-71.8314C75.1337,-64.131 75.1337,-54.9743 75.1337,-46.4166"/>
<polygon fill="#000000" stroke="#000000" points="78.6338,-46.4132 75.1337,-36.4133 71.6338,-46.4133 78.6338,-46.4132"/>
</g>
<!-- babel&#45;&gt;es5 -->
<g id="edge4" class="edge">
<title>babel&#45;&gt;es5</title>
<path fill="none" stroke="#000000" d="M122.2361,-143.8314C114.6041,-135.109 105.3372,-124.5183 97.0488,-115.0459"/>
<polygon fill="#000000" stroke="#000000" points="99.5933,-112.6387 90.3742,-107.4177 94.3252,-117.2483 99.5933,-112.6387"/>
</g>
<!-- babel&#45;&gt;suoritus_new -->
<!-- closure&#45;&gt;es5 -->
<g id="edge6" class="edge">
<title>closure&#45;&gt;es5</title>
<path fill="none" stroke="#000000" d="M96.9674,-215.7623C92.6845,-191.0928 85.0052,-146.8598 79.9901,-117.9731"/>
<polygon fill="#000000" stroke="#000000" points="83.4333,-117.3435 78.2742,-108.0896 76.5364,-118.541 83.4333,-117.3435"/>
</g>
<!-- closure&#45;&gt;babel -->
<!-- flowPlugin&#45;&gt;es6 -->
<g id="edge2" class="edge">
<title>flowPlugin&#45;&gt;es6</title>
<path fill="none" stroke="#000000" d="M156.629,-359.8314C156.4151,-352.131 156.1607,-342.9743 155.923,-334.4166"/>
<polygon fill="#000000" stroke="#000000" points="159.4216,-334.3122 155.6452,-324.4133 152.4243,-334.5066 159.4216,-334.3122"/>
</g>
<!-- tsc&#45;&gt;es6 -->
<g id="edge8" class="edge">
<title>tsc&#45;&gt;es6</title>
<path fill="none" stroke="#000000" d="M72.3247,-360.2022C87.4626,-350.2938 106.4146,-337.8888 122.3665,-327.4476"/>
<polygon fill="#000000" stroke="#000000" points="124.4265,-330.2824 130.8767,-321.8773 120.5928,-324.4255 124.4265,-330.2824"/>
</g>
<!-- tsc&#45;&gt;es5 -->
<g id="edge9" class="edge">
<title>tsc&#45;&gt;es5</title>
<path fill="none" stroke="#000000" d="M47.0103,-359.9843C52.0822,-311.2939 66.0924,-176.7961 72.211,-118.0573"/>
<polygon fill="#000000" stroke="#000000" points="75.7028,-118.3177 73.2578,-108.0089 68.7404,-117.5924 75.7028,-118.3177"/>
</g>
</g>
</svg>